# xmcd CD database file
#
# Track frame offsets:
#	150
#	17215
#	31924
#	44818
#	59128
#	65654
#	80886
#	93771
#	106798
#	121798
#	137910
#
# Disc length: 2076 seconds
#
# Revision: 1
# Processed by: cddbd v1.5.2PL0 Copyright (c) Steve Scherf et al.
# Submitted via: CDex 1.72
#
DISCID=9c081a0b
DTITLE=Dirty Dishes [CDN-And Stay Out-cty) - AND STAY OUT!
DYEAR=1900
DGENRE=Country
TTITLE0=MIDNIGHT FIRE
TTITLE1=WON'T COME BACK
TTITLE2=EVANGELINE
TTITLE3=FOR THE LAST TIME
TTITLE4=ROCKY TOP
TTITLE5=WHERE DO WE GO?
TTITLE6=YOUR BUCKET'S GOT A HOLE IN IT
TTITLE7=EVERY ROAD
TTITLE8=MOUNTAIN DEW
TTITLE9=AFTER THE GOLDRUSH
TTITLE10=GOSPEL MEDLEY
EXTD=
EXTT0=
EXTT1=
EXTT2=
EXTT3=
EXTT4=
EXTT5=
EXTT6=
EXTT7=
EXTT8=
EXTT9=
EXTT10=
PLAYORDER=
